<?xml version="1.0" encoding="utf-8"?>
<!-- Generator: Adobe Illustrator 15.0.0, SVG Export Plug-In . SVG Version: 6.00 Build 0)  -->
<!DOCTYPE svg PUBLIC "-//W3C//DTD SVG 1.1 Tiny//EN" "http://www.w3.org/Graphics/SVG/1.1/DTD/svg11-tiny.dtd" [
	<!ENTITY ns_flows "http://ns.adobe.com/Flows/1.0/">
	<!ENTITY ns_extend "http://ns.adobe.com/Extensibility/1.0/">
	<!ENTITY ns_ai "http://ns.adobe.com/AdobeIllustrator/10.0/">
	<!ENTITY ns_graphs "http://ns.adobe.com/Graphs/1.0/">
]>
<svg version="1.1" baseProfile="tiny" id="Layer_1" xmlns:x="&ns_extend;" xmlns:i="&ns_ai;" xmlns:graph="&ns_graphs;"
	 xmlns="http://www.w3.org/2000/svg" xmlns:xlink="http://www.w3.org/1999/xlink" xmlns:a="http://ns.adobe.com/AdobeSVGViewerExtensions/3.0/"
	 x="0px" y="0px" width="102px" height="103px" viewBox="0 0 102 103" xml:space="preserve">
<g>
	<circle fill="#FFFFFF" stroke="#2D3343" stroke-width="0.5" stroke-miterlimit="10" cx="51" cy="51" r="48"/>
</g>
<g>
	<path fill="#2D3343" stroke="#2D3343" stroke-width="0.5" stroke-miterlimit="10" d="M63.188,25.027h-6.779
		c-5.549,0-10.063,4.515-10.063,10.064v7.627h-6.316c-1.58,0-2.861,1.281-2.861,2.86c0,1.58,1.281,2.861,2.861,2.861h6.316v26.484
		c0,1.579,1.28,2.859,2.86,2.859s2.859-1.28,2.859-2.859V48.439h9.772c1.58,0,2.86-1.281,2.86-2.861s-1.28-2.86-2.86-2.86h-9.772
		v-7.627c0-2.396,1.949-4.344,4.344-4.344h6.779c1.58,0,2.86-1.28,2.86-2.86C66.048,26.307,64.768,25.027,63.188,25.027z"/>
</g>
</svg>
