<?xml version="1.0" encoding="utf-8"?>
<!-- Generator: Adobe Illustrator 15.0.0, SVG Export Plug-In . SVG Version: 6.00 Build 0)  -->
<!DOCTYPE svg PUBLIC "-//W3C//DTD SVG 1.1 Tiny//EN" "http://www.w3.org/Graphics/SVG/1.1/DTD/svg11-tiny.dtd" [
	<!ENTITY ns_flows "http://ns.adobe.com/Flows/1.0/">
	<!ENTITY ns_extend "http://ns.adobe.com/Extensibility/1.0/">
	<!ENTITY ns_ai "http://ns.adobe.com/AdobeIllustrator/10.0/">
	<!ENTITY ns_graphs "http://ns.adobe.com/Graphs/1.0/">
]>
<svg version="1.1" baseProfile="tiny" id="Layer_1" xmlns:x="&ns_extend;" xmlns:i="&ns_ai;" xmlns:graph="&ns_graphs;"
	 xmlns="http://www.w3.org/2000/svg" xmlns:xlink="http://www.w3.org/1999/xlink" xmlns:a="http://ns.adobe.com/AdobeSVGViewerExtensions/3.0/"
	 x="0px" y="0px" width="102px" height="103px" viewBox="0 0 102 103" xml:space="preserve">
<g>
	<circle fill="#FFFFFF" stroke="#2D3343" stroke-width="0.5" stroke-miterlimit="10" cx="51" cy="51" r="48"/>
</g>
<path fill="#2D3343" stroke="#2D3343" stroke-width="0.5" stroke-miterlimit="10" d="M33.526,41.066c-1.773,0-3.21,1.438-3.21,3.21
	v26.542c0,1.772,1.437,3.209,3.21,3.209s3.21-1.437,3.21-3.209V44.276C36.736,42.503,35.299,41.066,33.526,41.066z"/>
<path fill="#2D3343" stroke="#2D3343" stroke-width="0.5" stroke-miterlimit="10" d="M33.526,26.084
	c-0.845,0-1.673,0.343-2.269,0.941c-0.599,0.596-0.941,1.423-0.941,2.269c0,0.846,0.342,1.673,0.941,2.272
	c0.595,0.596,1.423,0.938,2.269,0.938c0.846,0,1.673-0.342,2.269-0.938c0.599-0.599,0.941-1.426,0.941-2.272
	c0-0.846-0.342-1.672-0.941-2.269C35.199,26.427,34.372,26.084,33.526,26.084z"/>
<path fill="#2D3343" stroke="#2D3343" stroke-width="0.5" stroke-miterlimit="10" d="M61.258,43.563
	c-3.359,0-6.471,1.083-9.005,2.914v-2.2c0-1.773-1.438-3.21-3.21-3.21c-1.774,0-3.212,1.438-3.212,3.21v26.542
	c0,1.773,1.438,3.211,3.212,3.211c1.772,0,3.21-1.438,3.21-3.211V58.99c0-4.967,4.039-9.007,9.005-9.007
	c4.967,0,9.008,4.041,9.008,9.007v12.542c0,1.772,1.438,3.21,3.209,3.21c1.773,0,3.211-1.438,3.211-3.21V58.99
	C76.686,50.483,69.766,43.563,61.258,43.563z"/>
</svg>
