<?xml version="1.0" encoding="utf-8"?>
<!-- Generator: Adobe Illustrator 15.0.0, SVG Export Plug-In . SVG Version: 6.00 Build 0)  -->
<!DOCTYPE svg PUBLIC "-//W3C//DTD SVG 1.1 Tiny//EN" "http://www.w3.org/Graphics/SVG/1.1/DTD/svg11-tiny.dtd" [
	<!ENTITY ns_flows "http://ns.adobe.com/Flows/1.0/">
	<!ENTITY ns_extend "http://ns.adobe.com/Extensibility/1.0/">
	<!ENTITY ns_ai "http://ns.adobe.com/AdobeIllustrator/10.0/">
	<!ENTITY ns_graphs "http://ns.adobe.com/Graphs/1.0/">
]>
<svg version="1.1" baseProfile="tiny" id="Layer_1" xmlns:x="&ns_extend;" xmlns:i="&ns_ai;" xmlns:graph="&ns_graphs;"
	 xmlns="http://www.w3.org/2000/svg" xmlns:xlink="http://www.w3.org/1999/xlink" xmlns:a="http://ns.adobe.com/AdobeSVGViewerExtensions/3.0/"
	 x="0px" y="0px" width="102px" height="103px" viewBox="0 0 102 103" xml:space="preserve">
<g>
	<circle fill="#FFFFFF" stroke="#2D3343" stroke-width="0.5" stroke-miterlimit="10" cx="51" cy="51" r="48"/>
</g>
<g>
</g>
<path fill="#2D3343" stroke="#2D3343" stroke-width="0.5" stroke-miterlimit="10" d="M61.914,48.583
	c1.672,0,3.023-1.353,3.023-3.022c0-1.671-1.353-3.024-3.023-3.024H44.109v-3.072c0-1.67-1.353-3.023-3.023-3.023
	s-3.023,1.354-3.023,3.023v19.973c0,9.797,7.97,17.768,17.766,17.768h6.086c1.672,0,3.022-1.354,3.022-3.023
	c0-1.671-1.352-3.023-3.022-3.023h-6.086c-6.461,0-11.719-5.258-11.719-11.719V48.583H61.914z"/>
</svg>
